<svg width="21" height="22" viewBox="0 0 21 22" fill="none" xmlns="http://www.w3.org/2000/svg">
<path d="M7.46927 1.1499H3.38038C2.25127 1.1499 1.33594 2.10503 1.33594 3.28324V7.5499M7.46927 20.3499H3.38038C2.25127 20.3499 1.33594 19.3948 1.33594 18.2166V13.9499M13.6026 1.1499H17.6915C18.8206 1.1499 19.7359 2.10503 19.7359 3.28324V7.5499M19.7359 13.9499V18.2166C19.7359 19.3948 18.8206 20.3499 17.6915 20.3499H13.6026M6.51094 7.91513V6.74514M14.5609 7.91513V6.74514M7.32807 14.3501C8.63922 15.4102 11.5794 15.4102 13.4116 14.3501M9.96094 11.4251L10.1991 11.1828C10.4148 10.9634 10.5359 10.6658 10.5359 10.3555V7.33014" stroke="black" stroke-width="2" stroke-linecap="round"/>
</svg>
