<svg width="28" height="28" viewBox="0 0 28 28" fill="none" xmlns="http://www.w3.org/2000/svg">
<path d="M14 26.5C20.9036 26.5 26.5 20.9036 26.5 14C26.5 7.09644 20.9036 1.5 14 1.5M14 26.5C7.09644 26.5 1.5 20.9036 1.5 14C1.5 7.09644 7.09644 1.5 14 1.5M14 26.5C10.9797 26.5 8.53125 20.9036 8.53125 14C8.53125 7.09644 10.9797 1.5 14 1.5M14 26.5C17.0203 26.5 19.4687 20.9036 19.4687 14C19.4687 7.09644 17.0203 1.5 14 1.5M3.84375 20.0756C6.13378 18.7642 9.93851 17.9062 14.2449 17.9062C18.7395 17.9062 22.6876 18.8408 24.9375 20.25M3.84375 7.92442C6.13378 9.23577 9.93851 10.0937 14.2449 10.0937C18.7395 10.0937 22.6876 9.15917 24.9375 7.75" stroke="black" stroke-width="2"/>
</svg>
