<svg width="25" height="24" viewBox="0 0 25 24" fill="none" xmlns="http://www.w3.org/2000/svg">
<path fill-rule="evenodd" clip-rule="evenodd" d="M14.1305 2.39534C13.5961 0.201554 10.4742 0.201554 9.93978 2.39534C9.86 2.72499 9.70351 3.03115 9.48305 3.2889C9.26259 3.54665 8.98439 3.74871 8.67108 3.87863C8.35778 4.00856 8.01823 4.06267 7.68006 4.03658C7.34189 4.01049 7.01466 3.90493 6.72499 3.72848C4.79556 2.55284 2.58767 4.76069 3.76334 6.69009C4.52273 7.93605 3.84912 9.5617 2.43157 9.90624C0.23635 10.4392 0.23635 13.5625 2.43157 14.0941C2.76132 14.174 3.06754 14.3306 3.32529 14.5513C3.58304 14.7719 3.78505 15.0503 3.91485 15.3637C4.04465 15.6772 4.09858 16.0169 4.07225 16.3551C4.04593 16.6934 3.94008 17.0207 3.76334 17.3103C2.58767 19.2397 4.79556 21.4475 6.72499 20.2719C7.0146 20.0951 7.34186 19.9893 7.68012 19.963C8.01838 19.9366 8.35808 19.9906 8.67155 20.1204C8.98503 20.2502 9.26341 20.4522 9.48404 20.7099C9.70467 20.9677 9.8613 21.2739 9.94118 21.6036C10.4742 23.7988 13.5975 23.7988 14.1291 21.6036C14.2093 21.274 14.3661 20.968 14.5867 20.7105C14.8074 20.4529 15.0858 20.251 15.3991 20.1213C15.7125 19.9915 16.0521 19.9375 16.3903 19.9637C16.7284 19.9898 17.0556 20.0954 17.3453 20.2719C19.2748 21.4475 21.4826 19.2397 20.307 17.3103C20.1305 17.0206 20.025 16.6934 19.9988 16.3552C19.9726 16.017 20.0266 15.6775 20.1564 15.3641C20.2861 15.0507 20.488 14.7724 20.7456 14.5517C21.0032 14.3311 21.3092 14.1743 21.6387 14.0941C23.834 13.5611 23.834 10.4378 21.6387 9.90624C21.309 9.82635 21.0028 9.66972 20.745 9.4491C20.4873 9.22847 20.2853 8.95009 20.1555 8.63663C20.0257 8.32316 19.9717 7.98347 19.9981 7.64521C20.0244 7.30696 20.1302 6.9797 20.307 6.69009C21.4826 4.76069 19.2748 2.55284 17.3453 3.72848C17.0557 3.90523 16.7284 4.01107 16.3902 4.0374C16.0519 4.06373 15.7122 4.0098 15.3988 3.87999C15.0853 3.75019 14.8069 3.5482 14.5863 3.29045C14.3656 3.0327 14.209 2.72648 14.1291 2.39674L14.1305 2.39534Z" stroke="black" stroke-width="1.5"/>
<path d="M14.5352 12C14.5352 13.3807 13.4159 14.5 12.0352 14.5C10.6544 14.5 9.53516 13.3807 9.53516 12C9.53516 10.6193 10.6544 9.5 12.0352 9.5C13.4159 9.5 14.5352 10.6193 14.5352 12Z" stroke="black" stroke-width="1.5"/>
</svg>
