<svg width="22" height="25" viewBox="0 0 22 25" fill="none" xmlns="http://www.w3.org/2000/svg">
<path d="M1.63454 19.7812H20.3667C20.8872 19.7812 21.1823 18.9512 20.8758 18.4757C20.1661 17.3745 19.4768 15.7512 19.4768 13.7938L19.5073 11.1163C19.5073 5.80539 15.6984 1.5 11 1.5C6.36976 1.5 2.6162 5.74289 2.6162 10.9767L2.58569 13.7938C2.58569 15.7379 1.8717 17.3523 1.13197 18.453C0.813175 18.9274 1.10753 19.7812 1.63454 19.7812Z" fill="black"/>
<path d="M1.13197 18.453L0.301978 17.8953L0.301978 17.8953L1.13197 18.453ZM2.58569 13.7938L1.58569 13.7829V13.7938H2.58569ZM2.6162 10.9767L3.6162 10.9876V10.9767H2.6162ZM20.8758 18.4757L21.7164 17.934L21.7164 17.934L20.8758 18.4757ZM19.4768 13.7938L18.4768 13.7824V13.7938H19.4768ZM19.5073 11.1163L20.5073 11.1277V11.1163H19.5073ZM7.66667 23C7.11438 23 6.66667 23.4477 6.66667 24C6.66667 24.5523 7.11438 25 7.66667 25V23ZM14.3333 25C14.8856 25 15.3333 24.5523 15.3333 24C15.3333 23.4477 14.8856 23 14.3333 23V25ZM1.96196 19.0108C2.78216 17.7903 3.58569 15.9848 3.58569 13.7938H1.58569C1.58569 15.491 0.961244 16.9143 0.301978 17.8953L1.96196 19.0108ZM3.58563 13.8046L3.61614 10.9876L1.61626 10.9659L1.58575 13.7829L3.58563 13.8046ZM21.7164 17.934C21.084 16.9528 20.4768 15.5151 20.4768 13.7938H18.4768C18.4768 15.9874 19.2482 17.7962 20.0352 19.0174L21.7164 17.934ZM20.4767 13.8052L20.5072 11.1277L18.5074 11.1049L18.4768 13.7824L20.4767 13.8052ZM20.5073 11.1163C20.5073 5.37179 16.3624 0.5 11 0.5V2.5C15.0345 2.5 18.5073 6.23898 18.5073 11.1163H20.5073ZM20.3667 20.7812C21.2211 20.7812 21.6946 20.1176 21.8672 19.6592C22.0484 19.1781 22.0837 18.5039 21.7164 17.934L20.0352 19.0174C20.0177 18.9902 20.0089 18.9673 20.0046 18.9528C20.0004 18.9386 20 18.9309 20 18.9306C20 18.9303 20.0001 18.9338 19.9991 18.94C19.9982 18.9462 19.9966 18.9514 19.9955 18.9543C19.9909 18.9666 19.9974 18.9385 20.0452 18.8961C20.1008 18.8468 20.2134 18.7812 20.3667 18.7812V20.7812ZM3.6162 10.9767C3.6162 6.17648 7.03369 2.5 11 2.5V0.5C5.70582 0.5 1.6162 5.3093 1.6162 10.9767H3.6162ZM1.63454 18.7812C1.79133 18.7812 1.90502 18.8494 1.95952 18.8986C2.00609 18.9408 2.01092 18.9671 2.00539 18.952C2.00382 18.9477 2.00203 18.9412 2.00093 18.9339C2.00042 18.9304 2.00016 18.9275 2.00006 18.9252C1.99995 18.9229 2.00002 18.9218 2.00002 18.9219C2.00001 18.922 1.9999 18.9238 1.99927 18.9273C1.99865 18.9308 1.99744 18.9364 1.9951 18.9439C1.99045 18.9589 1.98085 18.9827 1.96196 19.0108L0.301978 17.8953C-0.0825847 18.4675 -0.0502818 19.1533 0.126766 19.6381C0.294776 20.0981 0.766605 20.7812 1.63454 20.7812V18.7812ZM20.3667 18.7812H1.63454V20.7812H20.3667V18.7812ZM7.66667 25H14.3333V23H7.66667V25Z" fill="black"/>
</svg>
