<svg width="26" height="22" viewBox="0 0 26 22" fill="none" xmlns="http://www.w3.org/2000/svg">
<path fill-rule="evenodd" clip-rule="evenodd" d="M3.44038 3.24086C4.49054 2.19103 5.91466 1.60126 7.39958 1.60126C8.8845 1.60126 10.3086 2.19103 11.3588 3.24086L12.9996 4.88026L14.6404 3.24086C15.157 2.70601 15.7749 2.27939 16.4581 1.9859C17.1413 1.69241 17.8762 1.53792 18.6197 1.53146C19.3633 1.525 20.1007 1.66669 20.7889 1.94826C21.4771 2.22984 22.1024 2.64565 22.6282 3.17145C23.154 3.69725 23.5698 4.3225 23.8514 5.01072C24.133 5.69894 24.2746 6.43635 24.2682 7.17991C24.2617 7.92348 24.1072 8.65831 23.8137 9.34153C23.5203 10.0248 23.0936 10.6427 22.5588 11.1593L12.9996 20.7199L3.44038 11.1593C2.39055 10.1091 1.80078 8.68498 1.80078 7.20006C1.80078 5.71514 2.39055 4.29102 3.44038 3.24086V3.24086Z" stroke="#bbb" stroke-width="2" stroke-linejoin="round"/>
</svg>
