<svg width="32" height="36" viewBox="0 0 32 36" fill="none" xmlns="http://www.w3.org/2000/svg">
<path d="M1.96582 31.3337V7.68924C1.96582 5.69794 1.96582 4.70155 2.40179 3.94097C2.78529 3.27195 3.39677 2.72842 4.14941 2.38753C5.00506 2 6.126 2 8.36621 2H26.7662C27.8863 2 28.4472 2 28.875 2.19377C29.2513 2.36421 29.5553 2.63598 29.7471 2.97049C29.9651 3.35077 29.9658 3.84897 29.9658 4.84462V25.8224C29.9658 26.818 29.9651 27.3152 29.7471 27.6955C29.5553 28.03 29.2517 28.3027 28.8754 28.4731C28.448 28.6667 27.8878 28.6667 26.7699 28.6667H6.46582C3.98054 28.6667 1.96582 30.4575 1.96582 32.6667C1.96582 33.403 2.63739 34 3.46582 34H24.7699C25.8878 34 26.448 34 26.8754 33.8064C27.2517 33.636 27.5553 33.3635 27.7471 33.029C27.9651 32.6487 27.9658 32.1512 27.9658 31.1556V28.6667" stroke="black" stroke-width="3" stroke-linecap="round" stroke-linejoin="round"/>
</svg>
