<?xml version="1.0" encoding="utf-8"?><!DOCTYPE svg PUBLIC "-//W3C//DTD SVG 1.1//EN" "http://www.w3.org/Graphics/SVG/1.1/DTD/svg11.dtd"><svg version="1.1" id="Contours" xmlns="http://www.w3.org/2000/svg" xmlns:xlink="http://www.w3.org/1999/xlink" x="0px" y="0px" width="1590.209961px" height="1590.209961px" viewBox="0.000002 0.000006 1590.209961 1321.266113" enable-background="new 0 0 1590.209961 1590.209961" xml:space="preserve" stroke="black" fill="none" stroke-linecap='round' stroke-linejoin='round'><path class="selected"  fill="#000000" opacity="1.000000" stroke="none" 
 	d="
M1523.363948 373.699661 C1509.554987 416.980375 1495.746027 460.261090 1481.937066 503.541804 C1478.736022 513.574674 1475.224059 524.102776 1467.398770 531.150470 C1456.417017 541.040957 1440.127817 541.451021 1425.349345 541.319215 C1126.578100 538.654344 827.806856 535.989490 529.035613 533.324636 C519.435619 533.239010 509.304483 533.009372 501.101215 528.022027 C489.117315 520.736167 484.810409 505.720412 481.482750 492.096012 C472.967384 457.231599 464.452014 422.367188 455.936644 387.502778 C452.364330 372.876681 449.848175 354.752855 461.450596 345.157649 C468.600312 339.244832 478.703478 338.951279 487.981393 338.940050 C821.270457 338.536652 1154.559521 338.133253 1487.848585 337.729855 C1502.893455 337.711645 1522.030993 340.680432 1525.675479 355.277217 C1527.195294 361.364337 1525.270986 367.722531 1523.363948 373.699661 z"/><path class="selected"  fill="#000000" opacity="1.000000" stroke="none" 
 	d="
M536.806206 723.227050 C529.224355 691.270286 521.642503 659.313522 514.060652 627.356758 C511.101946 614.886101 508.418793 600.715510 515.591030 590.093352 C524.236605 577.289168 542.371731 576.280833 557.818400 576.586663 C848.192679 582.335811 1138.566959 588.084959 1428.941238 593.834107 C1436.450439 593.982782 1444.254386 594.201782 1450.950322 597.603932 C1457.646259 601.006083 1462.853284 608.594522 1460.993553 615.871306 C1449.495151 660.862403 1433.897965 704.805100 1414.458237 746.977472 C1412.156088 751.971733 1409.639902 757.143103 1405.245466 760.449378 C1399.251857 764.958829 1391.136691 765.045086 1383.636846 764.941106 C1113.770457 761.199395 843.904070 757.457696 574.037682 753.715997 C565.384375 753.596019 556.078101 753.263030 549.173197 748.046093 C541.639742 742.354254 538.985828 732.413956 536.806201 723.227052 z"/><path class="selected"  fill="#000000" opacity="1.000000" stroke="none" 
 	d="
M445.004679 298.571338 C434.714222 292.599867 430.572248 280.088737 427.249445 268.664598 C418.927526 240.052975 410.605606 211.441352 402.283686 182.829729 C399.240889 172.368288 396.295444 160.671512 401.294091 150.990919 C408.527851 136.981758 427.504331 135.234590 443.270654 135.317194 C813.449218 137.256904 1183.627779 139.196598 1553.806341 141.136292 C1564.852534 141.194173 1577.293190 141.846806 1584.657613 150.080093 C1594.694760 161.301439 1589.202529 178.858819 1583.209783 192.670043 C1571.953628 218.611597 1560.697478 244.553152 1549.441327 270.494707 C1546.594534 277.055582 1543.473130 283.959934 1537.589617 288.026087 C1531.299658 292.373138 1523.140208 292.601577 1515.494619 292.675012 C1166.802034 296.024129 818.109450 299.373248 469.416866 302.722367 C461.057025 302.802662 452.235619 302.767394 445.004679 298.571338 z"/><path class="selected"  fill="#000000" opacity="1.000000" stroke="none" 
 	d="
M29.291848 102.255829 C4.035308 102.475619 -1.982567 67.210772 0.522038 42.077763 C1.676020 30.497879 3.288151 17.916118 11.567343 9.738075 C20.922040 0.497666 35.547870 -0.036314 48.696789 0.001667 C123.201410 0.216874 197.706032 0.432081 272.210653 0.647288 C280.359764 0.670827 289.215479 0.933985 295.534002 6.080327 C301.195669 10.691670 303.484834 18.168084 305.484653 25.190881 C379.226038 284.149629 452.967423 543.108377 526.708808 802.067125 C531.417928 818.604213 553.048033 821.899404 570.242040 822.030645 C831.802801 824.026974 1093.363557 826.023320 1354.924314 828.019666 C1366.143695 828.105297 1378.606061 828.684571 1386.537604 836.620091 C1398.737010 848.825615 1392.584203 869.346607 1385.681555 885.162856 C1375.110975 909.383552 1364.540395 933.604247 1353.969815 957.824942 C1349.931074 967.079034 1345.565599 976.756419 1337.484653 982.810176 C1327.116012 990.577738 1313.087309 990.652261 1300.134335 990.398879 C1029.473716 985.104290 758.813096 979.809702 488.152477 974.515113 C477.738095 974.311390 466.348943 973.742675 458.593806 966.788634 C452.552395 961.371292 450.008048 953.163602 447.722000 945.377703 C366.273405 667.977432 284.824810 390.577160 203.376215 113.176889 C200.322340 102.775905 186.627008 100.886656 175.787372 100.980985 C126.955530 101.405934 78.123689 101.830881 29.291848 102.255829 z"/><path class="selected"  fill="#000000" opacity="1.000000" stroke="none" 
 	d="
M651.165699 1018.082968 C701.331832 1018.032794 750.751159 1044.721768 778.220337 1086.698996 C805.689515 1128.676224 810.361409 1184.647151 790.231545 1230.597471 C770.101681 1276.547792 725.790852 1311.060423 676.310604 1319.327734 C621.360388 1328.508984 562.173747 1304.492821 529.158014 1259.617628 C496.142280 1214.742435 490.829228 1151.090208 515.948455 1101.362488 C541.067682 1051.634769 595.453775 1018.138688 651.165699 1018.082968 z"/><path class="selected"  fill="#000000" opacity="1.000000" stroke="none" 
 	d="
M971.738399 1207.205043 C968.202980 1195.983007 965.988253 1184.345513 965.154500 1172.609323 C962.838117 1140.003117 971.498915 1106.713147 989.411900 1079.369862 C1001.925384 1060.268648 1018.845870 1044.073782 1038.476875 1032.408997 C1091.833526 1000.704361 1164.982317 1006.699208 1212.465029 1046.668047 C1259.947740 1086.636887 1278.332555 1157.690968 1256.194253 1215.673825 C1234.055952 1273.656682 1172.994583 1314.377597 1110.956653 1312.530612 C1048.918723 1310.683627 990.388031 1266.402233 971.738399 1207.205043 z"/></svg>