<svg width="22" height="20" viewBox="0 0 22 20" fill="none" xmlns="http://www.w3.org/2000/svg">
<path d="M15.0258 18.5445L15.0261 15.3307C15.0263 13.5555 13.5872 12.1164 11.812 12.1164H4.61481C2.83987 12.1164 1.40095 13.5551 1.40075 15.33L1.40039 18.5445M20.6001 18.5446L20.6004 15.3309C20.6005 13.5557 19.1615 12.1165 17.3863 12.1165M14.4067 2.03424C15.196 2.61988 15.7075 3.55873 15.7075 4.61706C15.7075 5.67539 15.196 6.61425 14.4067 7.19989M11.4942 4.61689C11.4942 6.39196 10.0552 7.83094 8.28013 7.83094C6.50506 7.83094 5.06608 6.39196 5.06608 4.61689C5.06608 2.84181 6.50506 1.40283 8.28013 1.40283C10.0552 1.40283 11.4942 2.84181 11.4942 4.61689Z" stroke="black" stroke-width="2" stroke-linecap="round" stroke-linejoin="round"/>
</svg>
