<svg width="24" height="24" viewBox="0 0 24 24" fill="none" xmlns="http://www.w3.org/2000/svg">
<path d="M7.10531 10.0638L4.96492 12.2042C4.16554 13.0036 3.70585 14.0913 3.71425 15.2344C3.72265 16.3775 4.17228 17.4718 5.00959 18.2833C5.821 19.1206 6.91554 19.5702 8.05847 19.5786C9.22746 19.5872 10.2894 19.1534 11.0888 18.354L13.2292 16.2136M15.9632 13.532L18.1036 11.3916C18.9029 10.5922 19.3626 9.50451 19.3542 8.36139C19.3458 7.21828 18.8962 6.12397 18.0589 5.31252C17.2477 4.50131 16.1533 4.05165 15.0102 4.04324C13.8671 4.03484 12.7793 4.46844 11.9798 5.26785L9.83945 7.40824M8.28846 14.9864L14.7096 8.56524" stroke="black" stroke-width="2" stroke-linecap="round" stroke-linejoin="round"/>
</svg>
